<?xml version="1.0" encoding="UTF-8"?>
<svg id="Layer_2" xmlns="http://www.w3.org/2000/svg" viewBox="0 0 125 125">
  <defs>
    <style>
      .cls-1 {
        stroke: #4a82ff;
      }

      .cls-1, .cls-2 {
        fill: none;
      }

      .cls-1, .cls-2, .cls-3 {
        stroke-miterlimit: 10;
      }

      .cls-2, .cls-3 {
        stroke: #000;
      }
    </style>
  </defs>
  <g id="Layer_1-2" data-name="Layer_1">
    <line class="cls-2" x1="50.5" y1="31" x2="50.5" y2="106"/>
    <line class="cls-2" x1="74.5" y1="31" x2="74.5" y2="106"/>
    <path class="cls-1" d="M62.5.5C28.26.5.5,28.26.5,62.5s27.76,62,62,62,62-27.76,62-62S96.74.5,62.5.5ZM86.5,105.5h-47V30.5h47v75Z"/>
    <path class="cls-2" d="M86.5,30.5v75h-47V30.5h47Z"/>
    <g id="JL8Mvm.tif">
      <path class="cls-3" d="M65,22.28c-.08.02-.12.15-.21.11-.07-.03-.11-.11-.16-.17-.43-.52-.86-1.04-1.29-1.55-.02-.03-.05-.05-.08-.09-.03.06-.02.11-.02.15,0,1.71,0,3.41,0,5.12,0,.05,0,.1,0,.15h-.25c0-.06,0-.13,0-.19,0-1.69,0-3.38,0-5.07v-.19c-.1.12-.18.21-.25.3-.39.47-.78.94-1.17,1.41-.13.16-.13.16-.28.04-.01,0-.03-.02-.04-.02,0-.02,0-.03,0-.05.2-.24.41-.48.61-.72.43-.51.85-1.01,1.28-1.52,0,0,.02,0,.03,0,.22.27.44.54.67.81.4.47.79.95,1.19,1.42v.05Z"/>
    </g>
  </g>
</svg>