<?xml version="1.0" encoding="UTF-8"?>
<svg id="Layer_2" xmlns="http://www.w3.org/2000/svg" viewBox="0 0 81.73 72.95">
  <defs>
    <style>
      .cls-1 {
        stroke: #191919;
      }

      .cls-1, .cls-2 {
        fill: none;
        stroke-linecap: round;
        stroke-linejoin: round;
      }

      .cls-2 {
        stroke: #6a0bff;
      }
    </style>
  </defs>
  <g id="Layer_1-2" data-name="Layer_1">
    <g>
      <path class="cls-1" d="M33.68,5.18c6.4,5.33,8.68,13.77,6.46,21.28l38.21,31.81c3.4,2.83,3.86,7.88,1.03,11.29-2.83,3.4-7.88,3.86-11.29,1.03l-38.21-31.81c-6.86,3.56-15.69,2.83-22.09-2.5C2.15,31.59-.29,24.49.72,17.73l11.66,9.71,11.37-4.19,2.06-11.94L14.15,1.6c6.46-2.21,13.89-1.1,19.52,3.59Z"/>
      <path class="cls-2" d="M72.48,65.54c.95,0,1.72-.77,1.72-1.72s-.77-1.72-1.72-1.72-1.72.77-1.72,1.72.77,1.72,1.72,1.72Z"/>
    </g>
  </g>
</svg>