<?xml version="1.0" encoding="UTF-8"?>
<svg id="Layer_2" xmlns="http://www.w3.org/2000/svg" viewBox="0 0 168.03 168.33">

  <g id="Layer_1-2" data-name="Layer_1">
    <path class="cls-1"  d="M.33,37.33c.55-2.99.93-6.02,1.67-8.96,2.15-8.55,6.19-16.07,12.79-22.02C20.29,1.37,26.9-.11,34.13,1.03c3.13.49,5.56,2.26,7.16,4.98,1.05,1.78,1.96,3.65,2.73,5.56,3.32,8.18,6.59,16.37,9.81,24.59.67,1.72,1.14,3.53,1.6,5.32,1.21,4.68.22,8.86-3.02,12.47-1.86,2.07-3.84,4.03-5.64,6.15-4.03,4.75-4.97,10.05-1.98,15.62,1.85,3.44,4.01,6.75,6.33,9.9,7.71,10.45,16.14,20.27,26.84,27.79,5.6,3.94,11.54,7.43,17.49,10.84,2.02,1.16,4.49,1.72,6.83,2.08,5.01.77,8.62-1.86,11.41-5.63,2.04-2.75,3.75-5.75,5.58-8.65,4.42-7,8.51-8.52,15.95-4.95,8.54,4.1,16.89,8.61,25.19,13.19,6.04,3.34,8.66,8.57,7.26,15.52-.34,1.71-.76,3.4-1.15,5.1-3.6,15.63-14.72,22.93-29.28,26.42-1.74.42-3.51.66-5.27.99h-7.2c-.36-.1-.71-.23-1.08-.3-3.54-.64-7.12-1.08-10.6-1.94-15.82-3.89-30.15-11.06-43.48-20.25-23.02-15.86-41.22-36.22-55.34-60.27-5.54-9.43-10.31-19.22-12.46-30.06-.61-3.09-.99-6.22-1.48-9.33,0-2.95,0-5.89,0-8.84Z"/>
  </g>
</svg>