<?xml version="1.0" encoding="UTF-8"?>
<svg id="Layer_2" xmlns="http://www.w3.org/2000/svg" viewBox="0 0 449 385">
  <g id="Layer_1-2" data-name="Layer_1">
    <g>
      <path class="cls-1" d="M1,314c0-72.67,0-145.33,0-218,1.45.74,2.99,1.34,4.34,2.24,35.23,23.37,70.43,46.78,105.64,70.18,33.96,22.57,67.99,45.04,101.84,67.77,8.38,5.63,16.21,6.08,24.32-.02.8-.6,1.66-1.11,2.49-1.66,68.34-45.41,136.68-90.82,205.04-136.22,1.35-.9,2.88-1.53,4.33-2.29v218c-.3.92-.72,1.83-.89,2.78-5.64,32.69-24.2,54.33-55.66,64.78-4.68,1.55-9.63,2.32-14.45,3.44H72c-.92-.3-1.83-.72-2.78-.89-32.46-5.6-54.08-23.96-64.61-55.17-1.63-4.84-2.43-9.96-3.61-14.95Z"/>
      <path class="cls-1" d="M72,1c102,0,204,0,306,0,.91.31,1.81.75,2.75.91,30.69,5.12,51.56,22.35,63.25,51.06,1.61,3.94,1.26,6.23-2.67,8.84-70.74,46.93-141.38,94.02-211.95,141.2-3.31,2.22-5.45,2.17-8.73-.02C149.94,155.7,79.15,108.55,8.38,61.36c-1.36-.91-2.67-1.9-4.19-2.98C12.86,31.87,29.79,13.79,56.17,4.99c5.15-1.72,10.55-2.68,15.83-3.99Z"/>
    </g>
  </g>
</svg>